<svg width="119" height="119" viewBox="0 0 119 119" fill="none" xmlns="http://www.w3.org/2000/svg">
<path d="M43.035 41.836C40.41 44.4918 38.52 47.6028 37.365 50.9112C36.48 53.4456 33.735 54.7659 31.245 53.8705C28.755 52.9751 27.435 50.1979 28.32 47.6787C29.94 43.0197 32.58 38.6642 36.24 34.9613C49.32 21.7278 70.485 21.6823 83.61 34.8095L89.85 28.4963C90.885 27.4492 92.43 27.1456 93.78 27.7072C95.13 28.2687 96 29.6041 96 31.0762V50.5015C96 52.5199 94.395 54.1437 92.4 54.1437H91.14H73.2C71.745 54.1437 70.425 53.2635 69.87 51.8976C69.315 50.5318 69.615 48.9687 70.65 47.9215L76.815 41.6842C67.425 32.351 52.35 32.3965 43.02 41.836H43.035ZM24 67.4985C24 65.4801 25.605 63.8563 27.6 63.8563H28.74H28.845H46.8C48.255 63.8563 49.575 64.7365 50.13 66.1024C50.685 67.4682 50.385 69.0313 49.35 70.0785L43.185 76.3158C52.575 85.649 67.65 85.6035 76.98 76.164C79.605 73.5082 81.495 70.3972 82.65 67.0888C83.535 64.5544 86.28 63.2341 88.77 64.1295C91.26 65.0249 92.58 67.8021 91.695 70.3213C90.075 74.9651 87.435 79.3206 83.76 83.0387C70.68 96.2722 49.515 96.3177 36.39 83.1905L30.15 89.5037C29.115 90.5508 27.57 90.8544 26.22 90.2929C24.87 89.7313 24 88.3959 24 86.9238V68.7733V68.6671V67.5137V67.4985Z" fill="white"/>
</svg>
